<mxfile host="app.diagrams.net" modified="2023-09-26T12:59:43.764Z" agent="Mozilla/5.0 (Windows NT 10.0; Win64; x64) AppleWebKit/537.36 (KHTML, like Gecko) Chrome/117.0.0.0 Safari/537.36 Edg/117.0.2045.36" etag="HC6g0lKSwTSy6CBd-dyw" version="21.5.2" type="github">
  <diagram name="第 1 页" id="rRRwXiFJLHssUKnTgDnN">
    <mxGraphModel dx="786" dy="467" grid="1" gridSize="10" guides="1" tooltips="1" connect="1" arrows="1" fold="1" page="1" pageScale="1" pageWidth="827" pageHeight="1169" math="0" shadow="0">
      <root>
        <mxCell id="0" />
        <mxCell id="1" parent="0" />
        <mxCell id="MbkqwrrIiwcySXfk0VdY-1" value="DecodeThread" style="rounded=0;whiteSpace=wrap;html=1;fontFamily=Lucida Console;" vertex="1" parent="1">
          <mxGeometry x="213" y="120" width="120" height="60" as="geometry" />
        </mxCell>
        <mxCell id="MbkqwrrIiwcySXfk0VdY-2" value="video.avi" style="rounded=0;whiteSpace=wrap;html=1;fontFamily=Lucida Console;" vertex="1" parent="1">
          <mxGeometry x="50" y="120" width="120" height="60" as="geometry" />
        </mxCell>
        <mxCell id="MbkqwrrIiwcySXfk0VdY-3" value="DpuThread" style="rounded=0;whiteSpace=wrap;html=1;fontFamily=Lucida Console;" vertex="1" parent="1">
          <mxGeometry x="375" y="120" width="120" height="60" as="geometry" />
        </mxCell>
        <mxCell id="MbkqwrrIiwcySXfk0VdY-4" value="&lt;div style=&quot;background-color: rgb(255, 255, 255); line-height: 19px;&quot;&gt;&lt;font style=&quot;font-size: 12px;&quot;&gt;DpuThread&lt;/font&gt;&lt;br&gt;&lt;/div&gt;" style="rounded=0;whiteSpace=wrap;html=1;fontFamily=Lucida Console;" vertex="1" parent="1">
          <mxGeometry x="375" y="210" width="120" height="60" as="geometry" />
        </mxCell>
        <mxCell id="MbkqwrrIiwcySXfk0VdY-6" value="SortingThread" style="rounded=0;whiteSpace=wrap;html=1;fontFamily=Lucida Console;" vertex="1" parent="1">
          <mxGeometry x="538" y="120" width="120" height="60" as="geometry" />
        </mxCell>
        <mxCell id="MbkqwrrIiwcySXfk0VdY-7" value="GuiThread" style="rounded=0;whiteSpace=wrap;html=1;fontFamily=Lucida Console;" vertex="1" parent="1">
          <mxGeometry x="700" y="120" width="120" height="60" as="geometry" />
        </mxCell>
      </root>
    </mxGraphModel>
  </diagram>
</mxfile>
